<svg id="Calque_1" data-name="Calque 1" xmlns="http://www.w3.org/2000/svg" viewBox="0 0 105 100.23"><defs><style>.cls-1{fill:#0083be;}</style></defs><path class="cls-1" d="M66.06,22.57H61.54V20.65a2.21,2.21,0,0,0-2.19-2.18H45.75a2.24,2.24,0,0,0-2.29,2.18v1.92H39a7,7,0,0,0-7,7V77.77a6.92,6.92,0,0,0,7,7H66.06a6.92,6.92,0,0,0,7-7V29.56A7,7,0,0,0,66.06,22.57Zm2.51,55.2a2.49,2.49,0,0,1-2.51,2.52H39a2.5,2.5,0,0,1-2.52-2.52V29.56A2.49,2.49,0,0,1,39,27.05H66.06a2.49,2.49,0,0,1,2.51,2.51Z"/><path class="cls-1" d="M89.83,41.13a1,1,0,0,0-.73-.31h0a.86.86,0,0,0-.64.28,1.06,1.06,0,0,0-.34.77.85.85,0,0,0,.28.64,15.8,15.8,0,0,1,0,22.36,1,1,0,0,0-.28.73,1,1,0,0,0,.28.74,1.1,1.1,0,0,0,1.41-.06A17.79,17.79,0,0,0,89.83,41.13Z"/><path class="cls-1" d="M84.11,46.85a1,1,0,0,0-.73-.31h0a.86.86,0,0,0-.63.28.92.92,0,0,0-.34.69,1,1,0,0,0,.31.75,7.67,7.67,0,0,1,0,10.83,1,1,0,0,0-.28.73,1,1,0,0,0,1,1,.84.84,0,0,0,.63-.28A9.71,9.71,0,0,0,84.11,46.85Z"/><path class="cls-1" d="M12,53.67A15.68,15.68,0,0,1,16.58,42.5a1,1,0,0,0,.28-.73.87.87,0,0,0-.94-1,1.06,1.06,0,0,0-.75.28,17.81,17.81,0,0,0,0,25.15,1,1,0,0,0,.75.31.84.84,0,0,0,.63-.28,1,1,0,0,0,.34-.78.84.84,0,0,0-.28-.63A15.7,15.7,0,0,1,12,53.67Z"/><path class="cls-1" d="M22.3,48.28a1,1,0,0,0,.29-.73,1,1,0,0,0-.29-.74,1,1,0,0,0-.73-.31h0a.9.9,0,0,0-.64.28,9.71,9.71,0,0,0,0,13.74,1.08,1.08,0,0,0,.75.31.88.88,0,0,0,.63-.28,1,1,0,0,0,.35-.69,1,1,0,0,0-.32-.75A7.68,7.68,0,0,1,22.3,48.28Z"/><path class="cls-1" d="M59.07,49.74H54.43l1.61-8a1.54,1.54,0,0,0-2.74-1.24l-9.38,12.6a1.54,1.54,0,0,0,1.23,2.46h4.64l-1.61,8a1.55,1.55,0,0,0,2.75,1.23l9.38-12.6A1.55,1.55,0,0,0,59.07,49.74Z"/></svg>